<svg width="332" height="322" viewBox="0 0 332 322" fill="none" xmlns="http://www.w3.org/2000/svg">
<g clip-path="url(#clip0_1089_18379)" filter="url(#filter0_d_1089_18379)">
<path d="M276.516 95.5263C312.681 153.746 294.753 230.216 236.397 266.326C222.534 274.917 207.111 280.696 191.01 283.334C174.909 285.972 158.445 285.416 142.559 281.698C126.673 277.98 111.677 271.174 98.4266 261.667C85.1764 252.161 73.932 240.14 65.336 226.293C29.171 168.073 47.0998 91.6037 105.456 55.494C163.811 19.3843 240.351 37.2856 276.516 95.5523" fill="white"/>
<g opacity="0.49">
<path d="M170.94 36.8431C170.94 36.8431 87.6056 33.55 65.4199 97.5653L169.408 161.034" fill="#6ECACE"/>
<path d="M170.94 36.8431C170.94 36.8431 87.6056 33.55 65.4199 97.5653L169.408 161.034" stroke="#6ECACE" stroke-miterlimit="10"/>
</g>
<path d="M242.467 205.047C242.467 203.512 242.54 201.972 242.561 200.437C242.519 198.616 242.482 196.796 242.435 194.98C241.393 196.541 240.294 198.044 239.268 199.6C238.111 201.238 237.001 202.908 235.829 204.531L235.375 205.135H235.501C237.819 204.942 240.143 205.135 242.467 205.057M250.683 205.645C250.882 205.759 251.055 205.912 251.192 206.096C251.33 206.279 251.428 206.488 251.482 206.711C251.535 206.933 251.543 207.164 251.504 207.39C251.466 207.615 251.381 207.83 251.257 208.022C251.018 208.476 250.667 208.863 250.238 209.145C249.809 209.427 249.315 209.595 248.803 209.635L248.052 209.729C248.052 209.786 248.052 209.843 248.052 209.9C247.99 211.3 248.224 212.985 247.807 214.395C247.542 215.701 246.875 216.695 245.291 216.58C242.686 215.946 242.79 212.252 242.686 209.791H242.321C242.175 209.804 242.029 209.804 241.883 209.791C240.951 209.833 240.018 209.885 239.085 209.937C237.704 209.906 236.334 209.864 234.953 209.848C234.496 209.861 234.039 209.851 233.583 209.817C233.229 209.749 232.87 209.714 232.51 209.713C228.409 208.719 229.238 206.035 231.134 203.247C233.739 199.371 236.48 195.583 239.085 191.728C239.79 190.648 240.579 189.625 241.446 188.669C241.586 188.513 241.727 188.357 241.878 188.206C242.167 187.897 242.48 187.611 242.816 187.353C243.717 186.672 244.78 185.923 245.973 186.23C246.502 186.303 246.986 186.568 247.333 186.973C248.282 188.498 247.943 190.339 248.011 192.046C248.136 195.365 247.938 198.689 248.011 202.014C248.011 202.914 248.011 203.819 248.011 204.719C248.969 204.745 249.898 205.057 250.678 205.614" fill="#8D65AB"/>
<path d="M221.699 236.214C222.031 238.305 221.864 240.444 221.209 242.457C220.51 244.426 219.276 246.163 217.645 247.472C216.857 248.205 215.93 248.774 214.92 249.147C213.909 249.519 212.834 249.687 211.758 249.641C208.868 249.476 206.128 248.307 204.01 246.338C203.424 245.688 202.994 244.913 202.753 244.072C202.512 243.23 202.466 242.346 202.619 241.484C203.14 239.575 204.75 239.965 206.005 240.933C206.672 241.645 207.193 242.493 207.813 243.222C208.274 243.674 208.788 244.067 209.345 244.392C210.862 245.011 212.727 245.214 214.191 244.392C214.384 244.239 214.558 244.064 214.712 243.872C215.339 243.189 215.781 242.359 215.999 241.458C216.468 239.689 215.895 237.816 215.202 236.173C214.436 234.825 212.716 234.513 211.294 234.487C209.34 234.31 208.324 235.314 206.907 236.412C206.382 236.564 205.838 236.636 205.292 236.625C204.954 236.664 204.612 236.627 204.291 236.516C203.97 236.405 203.678 236.224 203.437 235.985C203.182 235.416 203.107 234.782 203.223 234.17C203.364 233.301 203.411 232.468 203.525 231.605C203.557 231.199 203.598 230.793 203.645 230.387C203.807 228.015 203.89 225.643 203.999 223.271C204.033 222.497 204.123 221.726 204.27 220.966C204.319 220.832 204.402 220.714 204.51 220.623C204.619 220.531 204.75 220.47 204.89 220.446C207.829 219.894 210.867 220.175 213.852 220.175C213.913 220.157 213.979 220.157 214.04 220.175C214.467 220.175 214.936 220.175 215.353 220.175C216.072 220.175 216.833 220.175 217.541 220.175C218.476 220.053 219.425 220.084 220.35 220.269C222.069 220.789 221.913 223.193 220.568 224.051C219.094 224.904 217.333 224.717 215.702 224.779C213.555 224.857 211.341 224.712 209.241 225.159C209.153 225.196 209.08 225.237 209.001 225.274C208.926 225.534 208.891 225.804 208.897 226.075C208.803 227.526 208.814 229.004 208.835 230.429C209.835 230.309 210.804 229.987 211.82 229.94C213.996 229.719 216.188 230.154 218.114 231.189C219.022 231.749 219.808 232.485 220.426 233.354C221.044 234.222 221.482 235.205 221.715 236.245" fill="#3857A7"/>
<path d="M172.237 256.587C172.857 255.643 173.25 254.568 173.386 253.447C173.522 252.326 173.396 251.19 173.019 250.125C172.756 249.126 172.131 248.26 171.264 247.695C170.397 247.131 169.351 246.908 168.329 247.071C166.401 247.758 165.771 249.954 165.406 251.754C164.734 254.563 166.37 257.788 169.403 258.132C170.141 258.145 170.856 257.868 171.393 257.362C171.723 257.162 172.007 256.894 172.227 256.576M177.187 244.756C179.615 247.685 180.021 252.258 179.005 255.827C178.38 258.194 176.541 260.124 174.488 261.378C172.711 262.476 170.57 262.575 168.538 262.522C167.13 262.41 165.749 262.08 164.442 261.544C163.673 261.149 162.959 260.656 162.317 260.077C160.972 258.943 160.076 257.351 159.253 255.832C158.146 253.437 157.576 250.828 157.586 248.19C157.44 244.2 157.82 239.549 160.378 236.313C163.421 232.281 169.392 230.71 173.889 233.191C175.494 234.154 177.015 235.538 177.588 237.385C178.146 239.06 177.765 241.645 175.629 241.807C173.482 241.807 173.206 239.335 171.982 238.097C170.544 236.407 167.516 236.136 165.979 237.749C165.814 237.949 165.659 238.157 165.516 238.373C164.911 239.423 164.452 240.55 164.151 241.723C163.997 242.602 163.986 243.5 164.119 244.382C165.933 242.228 169.33 241.442 172.003 242.155C173.873 242.675 175.837 243.3 177.176 244.756" fill="#4CB4D3"/>
<path d="M136.744 220.092C137.069 220.084 137.391 220.15 137.687 220.286C137.982 220.421 138.243 220.621 138.449 220.872C138.656 221.122 138.802 221.417 138.878 221.732C138.953 222.048 138.956 222.376 138.886 222.693C138.453 225.404 136.395 227.474 135.176 229.852C133.2 233.352 131.77 237.132 130.935 241.063C130.413 243.029 130.262 245.074 129.622 247.004C129.392 248.429 128.017 249.558 126.573 248.991C123.968 247.743 124.786 244.018 124.885 241.661C125.224 238.841 126.245 236.193 127.131 233.524C128.215 230.726 130.012 228.286 131.659 225.804C129.648 225.804 127.657 225.804 125.651 225.804C123.645 225.804 121.53 226.121 119.696 225.164C119.344 224.956 119.045 224.671 118.82 224.33C118.595 223.99 118.451 223.602 118.398 223.198C118.518 220.414 120.832 220.16 123.088 220.212C124.87 220.186 126.641 220.113 128.413 220.16C131.195 220.128 133.972 220.035 136.749 220.087" fill="#78D1F2"/>
<path d="M95.2437 213.583C99.0003 213.412 101.116 208.246 98.6669 205.452C97.2184 203.975 95.3687 203.184 93.3471 203.964C92.0922 204.744 91.1389 205.925 90.6429 207.315C90.3147 208.709 90.273 210.389 91.2317 211.539C91.714 212.148 92.322 212.645 93.0143 212.998C93.7067 213.351 94.4671 213.551 95.2437 213.583ZM95.3479 199.87C95.9087 199.885 96.4661 199.778 96.982 199.558C97.498 199.338 97.9602 199.009 98.3371 198.594C98.7141 198.18 98.9969 197.688 99.1662 197.154C99.3355 196.62 99.3873 196.056 99.3181 195.5C98.9201 194.35 98.1454 193.368 97.1194 192.711C96.5266 192.424 95.8815 192.26 95.2233 192.228C94.565 192.197 93.9073 192.3 93.2898 192.529C92.18 192.862 91.5912 194.116 91.4245 195.188C90.9816 197.94 92.7114 199.594 95.3479 199.87ZM105.534 207.247C105.9 209.619 105.404 212.043 104.138 214.083C102.523 216.799 98.6095 217.969 95.598 217.818C93.6266 217.646 91.6935 217.173 89.8666 216.414C88.7918 216.067 87.821 215.457 87.0426 214.64C86.1784 213.643 85.5593 212.458 85.2346 211.18C84.9204 210.264 84.7791 209.297 84.8178 208.329C84.8705 206.881 85.2367 205.461 85.8911 204.167C86.6225 202.851 87.6609 201.73 88.9183 200.9C87.9049 200.318 87.0719 199.469 86.5111 198.445C85.5685 196.884 85.2678 195.019 85.6723 193.242C86.1151 191.161 87.7877 189.71 89.6478 188.742L89.7571 188.68C90.0646 188.514 90.3812 188.367 90.7054 188.237L91.3724 187.972C91.9918 187.766 92.6338 187.635 93.2846 187.582C93.6076 187.525 93.9359 187.478 94.2589 187.447H94.41C96.0764 187.299 97.7557 187.475 99.3546 187.967C100.643 188.42 101.799 189.186 102.717 190.196C103.636 191.206 104.289 192.428 104.617 193.752C104.933 195.226 104.805 196.76 104.248 198.161C103.692 199.561 102.733 200.766 101.491 201.623C103.471 202.945 104.901 204.943 105.513 207.242" fill="#56A746"/>
<path d="M85.8905 156.529C86.0967 155.694 86.174 154.833 86.1198 153.975C85.9867 153.291 85.755 152.631 85.432 152.014C83.4312 148.283 76.9756 148.783 76.6474 153.418C76.3243 157.19 77.9656 160.462 82.1547 160.275C84.1399 160.145 85.3799 158.267 85.9166 156.529M92.2888 156.841C92.5465 159.64 92.385 162.461 91.8095 165.212C91.0331 170.227 87.6881 175.445 82.0557 175.237C81.1026 175.237 80.1541 175.106 79.2369 174.847C77.6212 174.503 76.1125 173.775 74.8394 172.724C73.7608 171.653 72.8438 170.175 72.9741 168.604C73.0575 167.621 73.4586 166.424 74.3913 165.956C75.324 165.488 76.5067 166.138 77.1059 166.929C77.8249 167.678 78.148 168.692 78.8305 169.452C80.2217 170.789 82.5559 170.544 84.0825 169.566C86.0833 168.047 86.6304 165.332 86.6877 162.959C86.6877 162.564 86.6877 162.169 86.6877 161.778C84.9939 163.283 82.7712 164.053 80.5082 163.922C79.065 163.813 77.5436 163.651 76.2879 162.881C75.6522 162.577 75.0849 162.147 74.6206 161.617C73.6318 160.776 72.8674 159.704 72.3957 158.496C72.2341 158.004 72.1087 157.502 72.0206 156.992C71.714 155.718 71.7283 154.389 72.0623 153.122C72.1554 152.64 72.2807 152.166 72.4374 151.701C72.6782 150.726 73.0387 149.784 73.5108 148.897C77.9187 142.686 88.131 143.825 90.9758 150.978C91.7598 152.85 92.2043 154.846 92.2888 156.873" fill="#7BC25B"/>
<path d="M170.096 86.1307H170.2C170.2 86.1307 170.2 86.1307 170.2 86.0995L170.137 86.1307M187.014 83.7844C187.337 84.9237 186.576 86.2243 185.596 86.8174C184.617 87.4105 183.512 87.3688 182.434 87.3376C180.871 87.2128 179.308 87.2232 177.745 87.1295C176.489 87.1295 175.228 86.9579 173.972 86.9527C173.55 86.9527 173.128 86.9527 172.706 86.8954C172.377 86.9312 172.045 86.9312 171.716 86.8954C170.58 86.755 168.59 87.1347 168.121 85.8081C167.47 83.6179 168.444 80.5225 169.622 78.6236C170.924 76.6623 172.878 75.1953 174.65 73.6814C175.082 73.364 175.53 73.0779 175.978 72.7918C177.182 71.8606 178.484 71.0542 179.594 70.0293C179.918 69.6977 180.212 69.3392 180.475 68.9576C181.845 67.0275 181.314 63.9842 179.146 62.8864C178.082 62.5598 176.939 62.6001 175.9 63.0009C174.394 63.4535 173.462 64.7593 172.69 66.0495C172.076 67.3449 171.497 68.6923 170.038 69.0409C167.86 69.3166 166.912 67.3345 167.298 65.4408C167.339 65.2327 167.392 65.0246 167.449 64.8165C167.838 62.9622 168.849 61.2958 170.315 60.0928C171.196 59.3062 172.213 58.6857 173.316 58.2615C175.207 57.4093 177.327 57.1992 179.349 57.6633C182.012 58.2173 184.362 59.7656 185.92 61.9916C187.332 64.3379 187.675 67.3605 186.097 69.7172C185.753 70.2272 185.36 70.7028 184.924 71.1374C181.913 74.7375 177.213 76.86 175.139 81.1936C175.108 81.2665 175.077 81.3341 175.051 81.4069H175.488C177.639 81.2524 179.798 81.2803 181.944 81.4902C183.617 81.6774 185.821 81.4902 186.795 83.1497C186.905 83.3305 186.976 83.5326 187.003 83.7428" fill="#C72B26"/>
<path d="M164.427 61.3675C164.39 62.3507 164.427 63.3392 164.427 64.3225C164.245 68.9526 164.224 73.5931 164.229 78.2284C164.224 79.9506 164.13 81.6714 163.948 83.384C163.843 84.4244 163.755 85.5273 163.177 86.4066C162.939 86.7192 162.635 86.975 162.286 87.155C161.938 87.3351 161.553 87.4349 161.16 87.447C159.31 87.1297 158.795 84.9967 158.737 83.3944C158.68 81.792 158.612 80.2417 158.638 78.6654C158.706 74.7896 158.826 70.9139 158.868 67.0381C158.533 67.279 158.185 67.5013 157.825 67.704C157.157 68.1144 156.369 68.2851 155.59 68.1878C153.923 67.7196 153.616 65.7479 154.267 64.3433C155.012 62.8762 156.471 61.9294 157.685 60.8785C159.034 59.838 161.066 57.6426 162.895 58.3189H162.952C164.359 58.5374 164.437 60.1918 164.453 61.3311" fill="#C72B26"/>
<path d="M216.78 78.145C216.743 79.1282 216.78 80.1167 216.78 81.0999C216.598 85.7352 216.577 90.3706 216.582 95.0059C216.577 96.7281 216.483 98.4489 216.301 100.161C216.196 101.202 216.108 102.31 215.529 103.184C215.292 103.497 214.988 103.752 214.639 103.933C214.29 104.113 213.906 104.212 213.513 104.224C211.663 103.907 211.147 101.779 211.09 100.172C211.033 98.5643 210.965 97.0192 210.991 95.4429C211.059 91.5671 211.179 87.6913 211.22 83.8156C210.887 84.0532 210.539 84.2704 210.178 84.4659C209.504 84.8952 208.701 85.0789 207.907 84.9861C206.239 84.5231 205.932 82.5462 206.583 81.1415C207.328 79.6745 208.787 78.7328 210.001 77.6768C211.351 76.6363 213.383 74.4461 215.212 75.1172H215.269C216.676 75.3409 216.749 76.9952 216.769 78.1294" fill="#F04930"/>
<path d="M241.263 133.857H241.347V133.826L241.279 133.857M258.155 131.506C258.484 132.645 257.723 133.951 256.738 134.544C255.751 134.996 254.661 135.176 253.581 135.064C252.018 134.939 250.454 134.95 248.891 134.856C247.63 134.856 246.375 134.684 245.119 134.679C244.692 134.679 244.27 134.679 243.848 134.622C243.521 134.666 243.191 134.675 242.863 134.648C241.722 134.507 239.737 134.887 239.263 133.561C238.617 131.37 239.591 128.275 240.763 126.376C242.071 124.415 244.02 122.948 245.791 121.434C246.224 121.116 246.672 120.83 247.125 120.544C248.329 119.608 249.642 118.801 250.772 117.771C251.09 117.45 251.379 117.102 251.637 116.731C253.013 114.801 252.481 111.752 250.314 110.66C249.25 110.333 248.106 110.373 247.068 110.774C245.562 111.227 244.629 112.533 243.858 113.823C243.243 115.118 242.66 116.466 241.201 116.814C239.028 117.09 238.075 115.108 238.465 113.214C238.507 113.006 238.559 112.798 238.617 112.59C239.001 110.743 240.004 109.082 241.461 107.882C242.348 107.079 243.376 106.448 244.494 106.019C246.385 105.165 248.505 104.955 250.527 105.421C253.191 105.972 255.542 107.521 257.098 109.749C258.515 112.096 258.859 115.118 257.275 117.475C256.936 117.984 256.547 118.458 256.113 118.89C253.101 122.49 248.396 124.612 246.323 128.951L246.229 129.165H246.672C248.82 129.01 250.978 129.038 253.122 129.248C254.795 129.435 257.004 129.248 257.973 130.907C258.084 131.086 258.155 131.287 258.181 131.495" fill="#EE2F81"/>
<path d="M261.38 159.541C264.689 163.006 265.371 167.137 263.558 171.538C263.123 172.5 262.476 173.351 261.667 174.03C261.163 174.581 260.546 175.017 259.859 175.31C259.077 175.869 258.159 176.209 257.201 176.293C256.31 176.475 255.401 176.548 254.492 176.511C253.139 176.427 251.824 176.033 250.649 175.358C249.474 174.683 248.471 173.746 247.719 172.62C246.677 171.002 245.556 168.271 246.447 166.429C246.591 166.038 246.875 165.714 247.246 165.521C247.616 165.329 248.045 165.282 248.448 165.389C250.725 166.096 250.589 168.999 252.001 170.549C252.423 171.039 252.964 171.412 253.572 171.631C254.18 171.851 254.834 171.91 255.472 171.803C256.412 171.725 257.313 171.388 258.074 170.83C258.835 170.272 259.425 169.514 259.781 168.64C260.046 167.761 260.128 166.837 260.02 165.925C259.743 164.734 259.014 163.698 257.988 163.032C256.988 162.377 255.748 162.304 254.601 162.215C253.929 162.252 253.259 162.095 252.674 161.763C252.383 161.526 252.155 161.222 252.011 160.876C251.868 160.53 251.813 160.153 251.851 159.781C251.889 159.408 252.019 159.051 252.23 158.741C252.441 158.431 252.726 158.179 253.059 158.007C254.289 157.46 255.769 157.585 256.957 156.924C259.103 155.952 258.983 152.856 257.478 151.348C255.477 149.475 252.267 150.161 250.652 152.216C249.902 153.116 249.209 154.178 248.141 154.708C247.619 154.812 247.077 154.706 246.633 154.414C246.188 154.122 245.876 153.667 245.765 153.148C245.645 152.447 245.722 151.726 245.989 151.067C247.693 147.264 251.835 144.303 256.107 144.959C257.522 145.134 258.88 145.621 260.083 146.384C262.167 147.763 263.792 150.026 263.902 152.565C263.902 154.937 263.298 158.007 261.364 159.557" fill="#F289B7"/>
<path d="M137.515 75.341C137.478 76.3191 137.515 77.3075 137.515 78.2908C137.332 82.9261 137.317 87.5614 137.322 92.1967C137.315 93.9189 137.221 95.6396 137.041 97.3523C136.931 98.3928 136.843 99.5009 136.27 100.375C136.032 100.687 135.728 100.942 135.379 101.122C135.03 101.302 134.646 101.402 134.253 101.415C132.398 101.098 131.882 98.9702 131.825 97.3627C131.768 95.7552 131.705 94.2101 131.726 92.6337C131.799 88.758 131.914 84.8874 131.961 81.0064C131.629 81.2518 131.281 81.4743 130.919 81.6723C130.248 82.0827 129.458 82.2534 128.678 82.1562C127.011 81.6931 126.709 79.7162 127.36 78.3116C128.1 76.8445 129.559 75.9029 130.778 74.8468C132.127 73.8063 134.165 71.6057 135.988 72.2924H136.035C137.442 72.5109 137.52 74.1653 137.536 75.3046" fill="#F89833"/>
<path d="M121.962 75.5023C121.926 76.4856 121.962 77.474 121.962 78.4573C121.78 83.0874 121.759 87.7279 121.764 92.3633C121.759 94.0855 121.665 95.8063 121.483 97.5188C121.379 98.5593 121.29 99.6674 120.717 100.541C120.478 100.854 120.173 101.109 119.823 101.289C119.474 101.469 119.088 101.569 118.695 101.582C116.84 101.265 116.325 99.1368 116.272 97.5292C116.22 95.9217 116.147 94.3766 116.173 92.8002C116.241 88.9245 116.361 85.0487 116.403 81.1729C116.069 81.4156 115.721 81.638 115.361 81.8388C114.692 82.2492 113.904 82.4199 113.125 82.3227C111.458 81.8596 111.151 79.8827 111.802 78.4781C112.547 77.011 114.006 76.0694 115.22 75.0133C116.575 73.9728 118.607 71.7722 120.456 72.4537H120.503C121.91 72.6722 121.993 74.3318 122.009 75.4659" fill="#F89833"/>
<path d="M107.326 120.789C107.513 118.047 107.904 115.269 107.446 112.538C107.265 111.419 106.84 110.353 106.2 109.416C105.409 108.522 104.116 107.819 102.939 108.303C100.672 109.5 99.9793 112.174 99.6667 114.546C99.6635 114.538 99.6635 114.528 99.6667 114.52C99.4583 117.714 99.4687 127.219 103.653 127.692C106.935 127.479 106.998 123.307 107.3 120.82M114.157 114.619C114.253 116.476 114.143 118.337 113.828 120.17C113.698 122.289 113.252 124.378 112.505 126.366C111.296 130.569 107.79 132.702 103.491 132.239C100.797 132.068 98.3589 130.481 96.7176 128.39C95.3786 126.537 94.8055 124.264 94.5554 122.022C94.2011 118.708 93.878 115.3 94.6022 112.012C95.1233 110.088 95.7433 108.085 97.0511 106.54C97.4846 105.845 98.0491 105.24 98.7132 104.76C99.3219 104.165 100.04 103.694 100.829 103.371C104.377 101.738 108.733 103.007 111.249 105.832C113.38 108.038 113.854 111.664 114.157 114.603" fill="#FCDF2D"/>
<path d="M89.9188 106.774C89.8824 107.757 89.9188 108.746 89.9188 109.729C89.7365 114.359 89.7156 118.999 89.7208 123.635C89.7158 125.357 89.6219 127.078 89.4395 128.79C89.3353 129.831 89.2467 130.939 88.6684 131.813C88.4313 132.126 88.1272 132.381 87.7783 132.561C87.4294 132.741 87.0445 132.841 86.652 132.853C84.7971 132.536 84.2812 130.403 84.2291 128.801C84.177 127.198 84.1041 125.648 84.1301 124.072C84.1979 120.196 84.3177 116.32 84.3594 112.444C84.0249 112.681 83.6769 112.898 83.3173 113.095C82.6465 113.509 81.8542 113.681 81.0717 113.584C79.4044 113.116 79.097 111.144 79.7483 109.739C80.4933 108.272 81.9522 107.33 83.1662 106.274C84.5157 105.234 86.5478 103.044 88.3766 103.715H88.4287C89.8407 103.939 89.9188 105.588 89.9345 106.727" fill="#FCDF2D"/>
<path d="M118.872 116.814C119.148 116.818 119.421 116.878 119.673 116.992C119.925 117.106 120.151 117.27 120.336 117.475C120.547 117.718 120.689 118.013 120.75 118.329C120.81 118.645 120.786 118.971 120.68 119.275C120.542 119.596 120.367 119.899 120.159 120.18L119.534 121.221L118.304 123.213L172.924 157.429L172.778 157.819L172.184 159.292C171.903 159.978 171.58 160.676 171.335 161.373L171.298 161.466L170.335 163.417C170.064 163.937 169.813 164.53 169.532 165.072L113.969 130.252C113.438 131.126 112.903 131.993 112.364 132.853C112.124 133.301 111.836 133.722 111.505 134.107C111.175 134.419 110.741 134.596 110.287 134.602C109.834 134.609 109.394 134.445 109.056 134.143C108.81 133.887 108.609 133.592 108.462 133.269L106.023 128.764C104.349 125.664 102.673 122.563 100.995 119.462C100.707 119.058 100.549 118.575 100.542 118.078C100.563 117.635 100.745 117.215 101.056 116.898C101.366 116.581 101.782 116.388 102.225 116.356C107.024 116.471 111.822 116.632 116.621 116.762C117.371 116.762 118.122 116.762 118.872 116.825" fill="#5BBA4C"/>
<path d="M180.011 89.6732C180.153 89.9102 180.244 90.1742 180.278 90.4483C180.312 90.7224 180.288 91.0006 180.209 91.2651C180.11 91.5714 179.932 91.8463 179.693 92.0627C179.455 92.279 179.164 92.4291 178.849 92.4981C178.504 92.5498 178.154 92.562 177.807 92.5345H176.614H174.269C174.001 113.996 173.732 135.456 173.461 156.914L173.055 156.987L171.492 157.247C170.752 157.372 169.991 157.455 169.257 157.616H169.158L166.99 157.814C166.381 157.871 165.771 157.949 165.161 157.991C165.432 136.141 165.708 114.305 165.99 92.4825H162.921C162.412 92.5114 161.902 92.4853 161.399 92.4044C160.959 92.2853 160.58 92.005 160.338 91.6194C160.096 91.2337 160.008 90.771 160.092 90.3235C160.182 89.9802 160.33 89.6547 160.529 89.3611L163.134 84.9338L168.47 75.8037C168.663 75.3466 168.992 74.9599 169.413 74.6956C169.801 74.4803 170.254 74.4143 170.687 74.5102C171.12 74.6061 171.503 74.8571 171.763 75.2158C174.165 79.3777 176.53 83.5396 178.917 87.7015C179.266 88.3934 179.651 89.0333 180.011 89.6732Z" stroke="#1E2124" stroke-width="3" stroke-miterlimit="10"/>
<path d="M225.95 123.921C226.335 124.134 226.629 124.479 226.776 124.893C226.924 125.307 226.916 125.76 226.753 126.168C224.564 130.387 222.334 134.585 220.135 138.799C219.792 139.455 219.458 140.116 219.093 140.766C218.975 141.016 218.804 141.238 218.593 141.417C218.382 141.597 218.135 141.729 217.869 141.806C217.56 141.888 217.235 141.887 216.926 141.803C216.618 141.719 216.338 141.555 216.113 141.328C215.886 141.07 215.688 140.787 215.524 140.485L214.894 139.486L213.649 137.53L170.924 164.062C170.804 163.74 170.679 163.422 170.533 163.115C170.2 162.397 169.819 161.7 169.423 161.008C169.027 160.316 168.689 159.734 168.293 159.115L166.886 156.904L209.261 130.58L207.636 128.015C207.338 127.608 207.088 127.168 206.891 126.704C206.755 126.275 206.787 125.81 206.98 125.404C207.174 124.998 207.514 124.679 207.933 124.514C208.269 124.404 208.621 124.353 208.975 124.363L214.06 124.155L224.543 123.723C225.03 123.641 225.53 123.71 225.976 123.921" fill="#F04930"/>
<path d="M165.323 287.432C104.549 285.101 53.436 239.221 44.6305 179.154C33.4178 103.273 91.3256 34.7988 168.168 33.2901C229.473 31.9895 283.629 75.471 295.456 135.553C311.468 216.221 247.646 290.824 165.323 287.432ZM179.047 283.27C255.186 278 308.373 205.468 290.455 131.412C274.876 67.1316 210.898 26.5583 146.003 39.6943C59.7665 57.5384 19.2665 156.456 68.4209 229.43C92.5656 265.545 135.707 286.401 179.057 283.29" fill="#F04930"/>
<path d="M172.726 48.6992C172.784 49.386 172.726 50.0831 172.726 50.7802C172.726 51.597 172.643 52.4189 172.544 53.2305C172.45 54.271 172.054 54.9109 170.939 54.7392C170.283 54.7392 169.334 54.63 169.204 53.8392C169.073 52.4438 169.038 51.041 169.1 49.6409C169.189 48.6888 168.892 46.8732 170.21 46.7483C170.94 46.6391 171.687 46.7706 172.336 47.1229C172.711 47.5339 172.633 48.1634 172.711 48.6836" fill="#78D1F2"/>
<path d="M181.751 54.6511C181.282 54.5367 181.417 53.9072 181.422 53.543C181.49 52.5962 181.548 51.6493 181.657 50.7077C181.74 49.8597 181.923 49.0326 182.042 48.1898C182.042 48.0181 182.043 47.81 182.22 47.7007C182.595 47.5239 182.913 47.9557 182.944 48.2834C182.896 49.6615 182.768 51.0355 182.558 52.3985C182.438 52.9187 182.631 54.9633 181.751 54.6511Z" fill="#78D1F2"/>
<path d="M192.786 56.5237C192.667 56.4409 192.563 56.3389 192.478 56.222C192.406 56.022 192.406 55.8028 192.478 55.6029C192.623 54.6033 192.82 53.6118 193.067 52.6323C193.248 51.6871 193.493 50.7554 193.802 49.8439C193.901 49.7138 194.01 49.5525 194.187 49.5213C194.354 49.4907 194.525 49.5144 194.677 49.5889C195.068 49.8751 194.839 50.3901 194.781 50.7803C194.62 51.571 194.432 52.341 194.26 53.1005C194.088 53.8601 193.859 54.7237 193.646 55.5561C193.51 55.941 193.396 56.737 192.817 56.5237" fill="#78D1F2"/>
<path d="M203.353 60.0197C203.05 59.7804 203.274 59.3278 203.353 59.0157C203.645 57.8508 204.021 56.7086 204.478 55.5977C204.858 54.8486 204.999 53.9746 205.452 53.2826C205.583 53.1838 205.729 53.2826 205.843 53.3451C205.877 53.3775 205.902 53.4177 205.917 53.4622C205.931 53.5066 205.935 53.5539 205.927 53.6C205.953 53.6776 205.953 53.7617 205.927 53.8393C205.869 54.1369 205.782 54.4279 205.666 54.7081C205.254 55.7486 205.004 56.789 204.624 57.8295C204.41 58.2925 204.103 60.3631 203.363 60.0041" fill="#78D1F2"/>
<path d="M213.706 64.1819C213.101 64.0727 213.888 62.8085 214.039 62.5067C214.56 61.4351 215.081 60.3842 215.665 59.3437C215.812 59.0108 215.986 58.6906 216.186 58.3865C216.227 58.2965 216.288 58.2167 216.363 58.1529C216.439 58.089 216.528 58.0426 216.623 58.0171C217.009 58.0171 216.832 58.4853 216.754 58.6986C216.405 59.6923 215.847 60.6183 215.446 61.6015C215.081 62.2102 214.451 64.2027 213.7 64.2027" fill="#78D1F2"/>
<path d="M228.618 65.1232C228.289 65.7319 227.878 66.2989 227.492 66.8712C227.018 67.5423 226.523 68.203 225.997 68.8273C225.361 69.6233 224.663 69.9666 223.824 69.2123C223.303 68.8481 222.542 68.2446 222.865 67.5111C223.518 66.272 224.257 65.0796 225.075 63.9423C225.674 63.1931 226.419 61.5076 227.596 62.1266C228.262 62.4375 228.81 62.9536 229.16 63.5989C229.248 64.1504 228.826 64.6394 228.607 65.1232" fill="#78D1F2"/>
<path d="M232.912 75.034C232.583 74.6802 233.037 74.2276 233.24 73.9259C233.818 73.1715 234.386 72.412 234.996 71.6837C235.605 70.9553 236.137 70.4247 236.694 69.7848C236.809 69.6547 236.918 69.4779 237.111 69.4727C237.523 69.5299 237.554 70.0605 237.398 70.3571C236.604 71.4836 235.745 72.5624 234.824 73.5877C234.444 73.9519 233.474 75.7779 232.912 75.034Z" fill="#78D1F2"/>
<path d="M241.123 82.6294C241.068 82.4954 241.038 82.3527 241.034 82.208C241.034 81.9999 241.232 81.8178 241.362 81.6878C242.027 80.9283 242.734 80.2059 243.478 79.5236C244.145 78.8301 244.86 78.1851 245.619 77.5935C245.697 77.5476 245.784 77.5183 245.873 77.5076C245.963 77.4968 246.054 77.5048 246.14 77.5311C246.281 77.6195 246.453 77.6871 246.515 77.8536C246.687 78.3062 246.208 78.6132 245.948 78.8941C245.385 79.4663 244.806 79.997 244.228 80.538C243.566 81.1103 243.004 81.6826 242.368 82.26C242.045 82.5097 241.514 83.1132 241.144 82.619" fill="#78D1F2"/>
<path d="M248.062 91.3121C247.943 90.9479 248.38 90.6878 248.583 90.4693C249.466 89.6516 250.406 88.8987 251.397 88.2167C252.127 87.8005 252.731 87.145 253.481 86.812C253.643 86.812 253.721 86.9525 253.773 87.0773C253.783 87.123 253.782 87.1703 253.77 87.2155C253.759 87.2607 253.736 87.3025 253.705 87.3374C253.682 87.4159 253.632 87.484 253.565 87.5299C253.351 87.7479 253.118 87.9447 252.866 88.1178C251.96 88.7525 251.168 89.512 250.292 90.1988C249.86 90.4745 248.448 92.0248 248.047 91.3329" fill="#78D1F2"/>
<path d="M254.451 100.453C254.003 100.031 255.352 99.4123 255.644 99.2302C256.686 98.6163 257.728 98.0336 258.739 97.4718C259.046 97.2709 259.371 97.0969 259.708 96.9515C259.792 96.8986 259.886 96.865 259.984 96.8533C260.082 96.8416 260.182 96.852 260.276 96.8839C260.599 97.0816 260.193 97.4041 260.01 97.5238C259.171 98.1637 258.202 98.6371 257.327 99.2406C256.686 99.5475 255.071 100.874 254.451 100.448" fill="#78D1F2"/>
<path d="M268.227 107.627C267.659 108.022 267.039 108.345 266.434 108.667C265.71 109.052 264.97 109.421 264.22 109.739C263.287 110.165 262.516 110.16 262.136 109.109C261.813 108.537 261.422 107.668 262.042 107.158C263.184 106.344 264.382 105.61 265.627 104.963C266.497 104.562 267.925 103.402 268.696 104.474C269.154 105.051 269.413 105.761 269.436 106.498C269.269 107.018 268.664 107.283 268.253 107.611" fill="#78D1F2"/>
<path d="M267.591 118.406C267.456 117.948 268.071 117.745 268.389 117.569C269.243 117.152 270.092 116.731 270.963 116.351C271.739 115.997 272.526 115.743 273.338 115.42C273.5 115.363 273.677 115.248 273.859 115.332C274.203 115.566 273.99 116.055 273.719 116.247C272.503 116.9 271.249 117.476 269.962 117.974C269.441 118.13 267.774 119.327 267.602 118.406" fill="#78D1F2"/>
<path d="M271.499 128.878C271.511 128.736 271.548 128.597 271.608 128.467C271.702 128.275 271.962 128.207 272.129 128.145C273.066 127.767 274.023 127.439 274.995 127.162C275.902 126.84 276.832 126.586 277.777 126.402C277.951 126.394 278.121 126.454 278.251 126.569C278.335 126.714 278.46 126.855 278.439 127.026C278.387 127.51 277.824 127.547 277.459 127.713C276.693 127.973 275.943 128.186 275.177 128.41C274.328 128.623 273.572 128.884 272.744 129.112C272.338 129.191 271.598 129.487 271.488 128.878" fill="#78D1F2"/>
<path d="M273.781 139.757C273.839 139.377 274.339 139.341 274.641 139.237C275.797 138.905 276.976 138.656 278.168 138.493C279.007 138.446 279.841 138.139 280.664 138.175C280.81 138.238 280.81 138.409 280.805 138.545C280.793 138.591 280.77 138.633 280.738 138.668C280.707 138.704 280.667 138.731 280.622 138.748C280.565 138.806 280.49 138.844 280.409 138.857C280.121 138.955 279.824 139.025 279.523 139.065C278.429 139.226 277.376 139.544 276.293 139.746C275.772 139.798 273.823 140.548 273.781 139.746" fill="#78D1F2"/>
<path d="M275.359 150.786C275.151 150.214 276.641 150.266 276.98 150.234C278.163 150.146 279.351 150.089 280.533 150.058C280.896 150.015 281.263 150.006 281.627 150.032C281.723 150.023 281.819 150.036 281.91 150.07C282 150.103 282.081 150.156 282.148 150.224C282.352 150.552 281.846 150.64 281.627 150.682C280.585 150.874 279.507 150.859 278.454 151.004C277.746 151.004 275.703 151.447 275.328 150.786" fill="#78D1F2"/>
<path d="M282.003 164.15C281.31 164.15 280.612 164.104 279.919 164.057C279.101 163.984 278.278 163.885 277.47 163.745C276.46 163.594 275.819 163.162 276.053 162.059C276.095 161.404 276.246 160.462 277.043 160.379C278.446 160.322 279.851 160.362 281.248 160.498C282.196 160.639 284.03 160.441 284.082 161.763C284.148 162.491 283.976 163.221 283.593 163.844C283.16 164.197 282.519 164.083 281.998 164.13" fill="#78D1F2"/>
<path d="M275.563 172.828C275.703 172.371 276.323 172.532 276.688 172.558C277.631 172.678 278.574 172.787 279.512 172.948C280.356 173.078 281.174 173.302 282.008 173.468C282.18 173.505 282.388 173.51 282.487 173.671C282.649 174.056 282.195 174.348 281.867 174.363C280.491 174.241 279.124 174.038 277.772 173.754C277.251 173.609 275.203 173.687 275.563 172.828Z" fill="#78D1F2"/>
<path d="M273.098 183.732C273.184 183.616 273.292 183.517 273.416 183.441C273.616 183.365 273.836 183.365 274.036 183.441C275.026 183.637 276.005 183.886 276.969 184.185C277.907 184.412 278.826 184.708 279.72 185.069C279.87 185.158 279.978 185.302 280.023 185.47C280.047 185.637 280.014 185.808 279.929 185.954C279.621 186.328 279.116 186.068 278.731 185.99C277.954 185.792 277.204 185.558 276.443 185.335C275.682 185.111 274.838 184.846 274.02 184.585C273.64 184.429 272.853 184.279 273.098 183.711" fill="#78D1F2"/>
<path d="M269.051 194.075C269.306 193.789 269.744 194.038 270.051 194.116C271.201 194.471 272.324 194.908 273.412 195.422C274.136 195.844 275.006 196.036 275.673 196.52C275.762 196.655 275.673 196.796 275.59 196.905C275.554 196.935 275.513 196.958 275.467 196.97C275.422 196.983 275.375 196.985 275.329 196.978C275.248 196.995 275.164 196.986 275.089 196.952C274.796 196.874 274.511 196.771 274.235 196.645C273.229 196.177 272.151 195.875 271.156 195.448C270.702 195.214 268.649 194.772 269.071 194.075" fill="#78D1F2"/>
<path d="M264.324 204.178C264.47 203.579 265.69 204.433 265.987 204.599C267.029 205.171 268.071 205.775 269.055 206.389C269.383 206.553 269.695 206.746 269.988 206.966C270.076 207.012 270.153 207.076 270.213 207.156C270.272 207.235 270.313 207.327 270.332 207.424C270.332 207.804 269.853 207.606 269.649 207.518C268.67 207.112 267.774 206.508 266.815 206.056C266.226 205.66 264.267 204.927 264.324 204.178Z" fill="#78D1F2"/>
<path d="M264.371 217.845C263.741 217.553 263.147 217.179 262.542 216.83C261.839 216.398 261.146 215.946 260.458 215.451C259.619 214.864 259.234 214.192 259.937 213.303C260.271 212.736 260.828 211.955 261.584 212.236C262.873 212.81 264.12 213.474 265.314 214.224C266.101 214.775 267.841 215.415 267.294 216.632C267.026 217.323 266.542 217.909 265.913 218.302C265.392 218.427 264.84 218.037 264.35 217.845" fill="#78D1F2"/>
<path d="M254.686 222.766C255.014 222.418 255.504 222.844 255.816 223.031C256.613 223.552 257.411 224.072 258.182 224.644C258.953 225.216 259.516 225.711 260.193 226.231C260.328 226.335 260.516 226.434 260.532 226.626C260.532 227.042 259.969 227.105 259.667 226.97C258.483 226.245 257.343 225.451 256.254 224.592C255.863 224.233 253.972 223.38 254.691 222.766" fill="#78D1F2"/>
<path d="M247.568 231.469C247.699 231.407 247.84 231.368 247.984 231.355C248.198 231.355 248.386 231.527 248.506 231.646C249.309 232.268 250.08 232.931 250.814 233.634C251.555 234.259 252.252 234.935 252.898 235.657C252.946 235.734 252.979 235.819 252.994 235.909C253.009 235.998 253.007 236.089 252.986 236.178C252.908 236.318 252.846 236.5 252.689 236.568C252.241 236.771 251.903 236.313 251.59 236.048C250.98 235.527 250.412 234.976 249.829 234.43C249.214 233.8 248.605 233.275 247.984 232.671C247.714 232.364 247.073 231.87 247.547 231.469" fill="#78D1F2"/>
<path d="M239.278 238.982C239.637 238.836 239.924 239.257 240.158 239.465C241.037 240.298 241.854 241.193 242.602 242.145C243.061 242.847 243.759 243.409 244.165 244.142C244.165 244.304 244.04 244.387 243.915 244.455C243.87 244.465 243.822 244.466 243.777 244.457C243.731 244.448 243.687 244.43 243.649 244.403C243.57 244.378 243.5 244.331 243.446 244.267C243.217 244.068 243.006 243.849 242.816 243.612C242.123 242.743 241.31 241.994 240.58 241.161C240.283 240.745 238.632 239.424 239.304 238.982" fill="#78D1F2"/>
<path d="M230.499 245.932C230.89 245.464 231.609 246.775 231.801 247.056C232.479 248.041 233.13 249.038 233.755 250.047C233.976 250.342 234.172 250.655 234.339 250.984C234.396 251.064 234.435 251.156 234.453 251.253C234.471 251.35 234.468 251.45 234.443 251.545C234.261 251.884 233.922 251.499 233.781 251.322C233.083 250.526 232.552 249.579 231.89 248.721C231.536 248.102 230.108 246.562 230.499 245.911" fill="#78D1F2"/>
<path d="M222.261 258.475C221.905 257.875 221.58 257.257 221.287 256.623C220.933 255.879 220.599 255.119 220.318 254.349C219.932 253.397 219.979 252.622 221.058 252.269C221.647 251.972 222.543 251.629 223.022 252.269C223.784 253.454 224.461 254.692 225.049 255.973C225.409 256.862 226.513 258.35 225.393 259.068C224.787 259.503 224.055 259.729 223.309 259.713C222.788 259.515 222.558 258.902 222.267 258.475" fill="#78D1F2"/>
<path d="M211.45 257.304C211.924 257.19 212.096 257.825 212.258 258.142C212.633 259.016 213.013 259.89 213.352 260.785C213.67 261.581 213.873 262.403 214.17 263.209C214.222 263.376 214.326 263.558 214.238 263.729C213.982 264.062 213.503 263.818 213.321 263.542C212.724 262.289 212.202 261.002 211.757 259.687C211.627 259.167 210.512 257.424 211.44 257.304" fill="#78D1F2"/>
<path d="M200.727 260.702C200.871 260.72 201.01 260.764 201.139 260.832C201.326 260.936 201.384 261.196 201.436 261.352C201.772 262.31 202.055 263.286 202.285 264.276C202.56 265.203 202.769 266.149 202.91 267.106C202.907 267.279 202.838 267.445 202.718 267.569C202.583 267.673 202.419 267.732 202.249 267.735C201.769 267.662 201.728 267.09 201.608 266.695C201.384 265.92 201.207 265.134 201.019 264.38C200.847 263.516 200.623 262.741 200.435 261.898C200.378 261.492 200.112 260.733 200.727 260.655" fill="#78D1F2"/>
<path d="M165.396 271.954C165.348 271.262 165.336 270.567 165.36 269.873C165.36 269.051 165.427 268.224 165.521 267.407C165.61 266.367 166 265.717 167.121 265.878C167.782 265.878 168.736 265.972 168.871 266.768C169.017 268.167 169.064 269.575 169.012 270.982C168.934 271.939 169.247 273.765 167.923 273.905C167.189 274.017 166.439 273.891 165.782 273.546C165.401 273.135 165.474 272.506 165.396 271.986" fill="#78D1F2"/>
<path d="M156.272 266.034C156.741 266.143 156.616 266.778 156.611 267.142C156.554 268.094 156.502 269.046 156.397 269.998C156.324 270.846 156.147 271.684 156.033 272.527C156.033 272.698 156.033 272.912 155.861 273.047C155.485 273.229 155.162 272.797 155.126 272.469C155.16 271.076 155.278 269.686 155.48 268.308C155.595 267.787 155.387 265.706 156.272 266.039" fill="#78D1F2"/>
<path d="M145.19 264.26C145.309 264.342 145.413 264.444 145.497 264.562C145.573 264.761 145.573 264.982 145.497 265.181C145.361 266.187 145.173 267.186 144.934 268.172C144.763 269.125 144.525 270.063 144.22 270.982C144.121 271.117 144.012 271.278 143.835 271.309C143.669 271.342 143.497 271.32 143.345 271.247C142.944 270.961 143.173 270.441 143.23 270.05C143.382 269.254 143.564 268.49 143.751 267.715C143.939 266.939 144.137 266.076 144.351 265.238C144.481 264.848 144.59 264.052 145.174 264.26" fill="#78D1F2"/>
<path d="M134.514 260.832C134.816 261.071 134.597 261.529 134.514 261.836C134.232 263.011 133.865 264.163 133.415 265.285C133.04 266.039 132.894 266.924 132.456 267.621C132.326 267.72 132.18 267.621 132.06 267.558C132.027 267.525 132.003 267.485 131.987 267.441C131.972 267.397 131.967 267.35 131.971 267.304C131.943 267.226 131.943 267.141 131.971 267.064C132.026 266.763 132.112 266.469 132.227 266.185C132.628 265.145 132.868 264.073 133.232 263.027C133.441 262.559 133.753 260.478 134.478 260.832" fill="#78D1F2"/>
<path d="M124.072 256.758C124.677 256.862 123.9 258.142 123.755 258.449C123.234 259.526 122.712 260.587 122.145 261.633C122 261.972 121.826 262.297 121.624 262.606C121.583 262.696 121.523 262.776 121.447 262.84C121.371 262.904 121.282 262.95 121.186 262.975C120.8 262.975 120.972 262.507 121.045 262.299C121.394 261.295 121.947 260.358 122.337 259.37C122.702 258.751 123.317 256.769 124.072 256.769" fill="#78D1F2"/>
<path d="M109.077 255.926C109.418 255.318 109.79 254.727 110.192 254.157C110.661 253.476 111.151 252.81 111.677 252.18C112.313 251.369 113.005 251.025 113.855 251.774C114.407 252.133 115.157 252.737 114.834 253.47C114.192 254.724 113.46 255.931 112.646 257.081C112.052 257.84 111.317 259.536 110.129 258.928C109.453 258.623 108.894 258.109 108.535 257.461C108.441 256.909 108.858 256.42 109.056 255.926" fill="#78D1F2"/>
<path d="M104.675 246C105.008 246.348 104.555 246.811 104.351 247.113C103.784 247.878 103.216 248.648 102.611 249.387C102.007 250.125 101.475 250.661 100.918 251.306C100.803 251.436 100.694 251.618 100.501 251.624C100.084 251.572 100.053 251.036 100.204 250.739C100.992 249.598 101.848 248.505 102.768 247.467C103.148 247.097 104.101 245.256 104.675 246Z" fill="#78D1F2"/>
<path d="M96.3536 238.462C96.414 238.594 96.4476 238.737 96.4526 238.883C96.4526 239.096 96.2546 239.278 96.1243 239.403C95.4699 240.172 94.7742 240.905 94.0402 241.599C93.3736 242.302 92.6579 242.957 91.8987 243.56C91.8205 243.605 91.7341 243.633 91.6446 243.644C91.555 243.655 91.4643 243.647 91.3777 243.622C91.237 243.534 91.0599 243.466 91.0025 243.305C90.8254 242.847 91.2995 242.535 91.5601 242.264C92.1228 241.682 92.6959 241.146 93.2742 240.594C93.936 240.012 94.4935 239.434 95.1291 238.846C95.4522 238.592 95.9784 237.983 96.3536 238.477" fill="#78D1F2"/>
<path d="M89.309 229.768C89.4289 230.132 88.9964 230.398 88.788 230.621C87.909 231.452 86.9703 232.217 85.9796 232.91C85.2554 233.332 84.651 233.993 83.8955 234.336C83.7339 234.336 83.661 234.195 83.6037 234.071C83.593 234.025 83.593 233.978 83.6039 233.933C83.6148 233.888 83.6361 233.846 83.6662 233.81C83.6908 233.73 83.7423 233.66 83.8121 233.613C84.0234 233.393 84.2555 233.195 84.5051 233.02C85.4065 232.375 86.1985 231.605 87.0738 230.939C87.5062 230.663 88.913 229.092 89.3247 229.784" fill="#78D1F2"/>
<path d="M82.8117 220.638C83.2598 221.054 81.9103 221.678 81.6185 221.876C80.5764 222.5 79.5344 223.093 78.5235 223.666C78.2171 223.868 77.8927 224.042 77.5544 224.186C77.4717 224.241 77.3775 224.276 77.279 224.289C77.1805 224.301 77.0804 224.291 76.9865 224.259C76.6582 224.066 77.0647 223.739 77.2418 223.614C78.0807 222.963 79.055 222.485 79.9303 221.871C80.566 221.548 82.1812 220.206 82.8117 220.633" fill="#78D1F2"/>
<path d="M71.297 213.225C71.8649 212.824 72.4902 212.497 73.0946 212.153C73.824 211.758 74.5639 211.388 75.3194 211.061C76.2521 210.629 77.0284 210.634 77.4504 211.685C77.7787 212.257 78.1747 213.136 77.5494 213.646C76.4051 214.472 75.2037 215.216 73.9543 215.873C73.079 216.279 71.6513 217.465 70.8698 216.393C70.406 215.814 70.1411 215.1 70.1143 214.359C70.281 213.839 70.8854 213.568 71.297 213.235" fill="#78D1F2"/>
<path d="M71.8804 202.373C72.0158 202.836 71.401 203.044 71.0832 203.221C70.2287 203.642 69.3742 204.074 68.478 204.459C67.6965 204.818 66.8837 205.083 66.0917 205.406C65.9302 205.468 65.753 205.583 65.5707 205.499C65.2268 205.265 65.4404 204.776 65.7113 204.579C66.9321 203.917 68.1919 203.33 69.4836 202.82C70.0047 202.659 71.6772 201.452 71.8543 202.373" fill="#78D1F2"/>
<path d="M67.8888 191.853C67.8782 191.999 67.843 192.141 67.7846 192.275C67.6908 192.462 67.4303 192.535 67.2635 192.597C66.3214 192.982 65.3596 193.317 64.3822 193.601C63.47 193.929 62.5348 194.19 61.5843 194.382C61.4091 194.389 61.2379 194.329 61.1049 194.215C61.0215 194.075 60.8965 193.929 60.9173 193.757C60.9642 193.273 61.5322 193.206 61.9021 193.06C62.668 192.795 63.4235 192.576 64.1894 192.342C65.0439 192.124 65.8046 191.864 66.6383 191.629C67.0447 191.546 67.7898 191.239 67.8992 191.853" fill="#78D1F2"/>
<path d="M65.5395 180.923C65.4821 181.303 64.9767 181.345 64.6745 181.443C63.5139 181.786 62.3297 182.043 61.1315 182.213C60.2874 182.26 59.4485 182.578 58.6201 182.546C58.469 182.479 58.4742 182.307 58.4794 182.172C58.4905 182.126 58.5123 182.084 58.5431 182.049C58.574 182.013 58.6129 181.986 58.6566 181.969C58.7129 181.909 58.7884 181.87 58.8702 181.86C59.1596 181.759 59.4579 181.686 59.7612 181.641C60.8606 181.475 61.9183 181.147 63.0072 180.939C63.5283 180.887 65.4926 180.122 65.5395 180.939" fill="#78D1F2"/>
<path d="M63.9082 169.831C64.1166 170.409 62.6161 170.352 62.2774 170.393C61.0894 170.492 59.8911 170.549 58.7031 170.591C58.3364 170.633 57.9669 170.643 57.5985 170.622C57.503 170.629 57.4071 170.615 57.3173 170.582C57.2275 170.549 57.1458 170.497 57.0775 170.43C56.8743 170.107 57.3797 170.008 57.5985 169.972C58.6406 169.769 59.7295 169.779 60.7872 169.629C61.5011 169.629 63.5539 169.171 63.9134 169.831" fill="#78D1F2"/>
<path d="M57.1347 156.415C57.8329 156.415 58.5311 156.456 59.2189 156.503C60.0421 156.571 60.8653 156.664 61.6781 156.805C62.7202 156.95 63.3454 157.377 63.1162 158.49C63.0797 159.146 62.9286 160.098 62.1262 160.181C60.7155 160.249 59.3018 160.217 57.8954 160.087C56.942 159.947 55.0975 160.16 55.0402 158.828C54.9645 158.089 55.1328 157.346 55.5195 156.711C55.952 156.357 56.598 156.467 57.1243 156.415" fill="#78D1F2"/>
<path d="M63.5699 147.648C63.4292 148.112 62.804 147.95 62.4393 147.924C61.4858 147.81 60.5375 147.706 59.5944 147.55C58.7451 147.425 57.9219 147.201 57.0779 147.029C56.9059 146.993 56.6975 146.993 56.5933 146.827C56.4318 146.442 56.885 146.145 57.2185 146.129C58.6026 146.245 59.9788 146.441 61.3399 146.717C61.8609 146.863 63.9451 146.769 63.5699 147.638" fill="#78D1F2"/>
<path d="M65.993 136.667C65.9036 136.782 65.7942 136.881 65.67 136.958C65.4928 137.067 65.2323 136.984 65.0499 136.958C64.0512 136.766 63.0633 136.521 62.0905 136.224C61.1473 135.998 60.2211 135.706 59.3186 135.35C59.1883 135.241 59.032 135.127 59.0111 134.95C58.9865 134.782 59.0176 134.61 59.0997 134.461C59.4072 134.081 59.9178 134.336 60.3085 134.414C61.0953 134.612 61.8716 134.841 62.6167 135.064C63.3618 135.288 64.2319 135.543 65.0604 135.803C65.4407 135.959 66.2327 136.11 65.993 136.682" fill="#78D1F2"/>
<path d="M70.0095 126.231C69.7542 126.522 69.3113 126.272 69.0039 126.194C67.8441 125.845 66.7107 125.414 65.6119 124.904C64.8825 124.483 64.0071 124.29 63.3298 123.812C63.2412 123.676 63.3298 123.531 63.4131 123.421C63.4479 123.39 63.4896 123.367 63.5348 123.354C63.58 123.342 63.6276 123.34 63.6737 123.349C63.756 123.331 63.8418 123.34 63.9186 123.375C64.2136 123.449 64.5013 123.55 64.7783 123.676C65.8203 124.139 66.8624 124.441 67.9045 124.862C68.363 125.097 70.4315 125.534 70.0303 126.231" fill="#78D1F2"/>
<path d="M74.7093 116.044C74.5687 116.643 73.3338 115.795 73.0368 115.628C71.9948 115.061 70.9527 114.458 69.9367 113.838C69.6054 113.677 69.2897 113.486 68.9936 113.266C68.9053 113.22 68.8282 113.155 68.7679 113.076C68.7075 112.997 68.6654 112.906 68.6445 112.808C68.6445 112.423 69.1291 112.621 69.3375 112.71C70.3222 113.11 71.2236 113.714 72.1928 114.166C72.792 114.562 74.7615 115.29 74.7093 116.044Z" fill="#78D1F2"/>
<path d="M73.9329 100.448C74.5686 100.739 75.1625 101.113 75.7669 101.462C76.4703 101.899 77.1633 102.352 77.8511 102.841C78.6952 103.429 79.0807 104.105 78.3721 104.994C78.0387 105.561 77.4811 106.342 76.7256 106.061C75.4354 105.486 74.187 104.822 72.9898 104.074C72.2031 103.522 70.4576 102.882 71.0047 101.665C71.2709 100.97 71.7577 100.382 72.3906 99.9897C72.9117 99.8649 73.464 100.26 73.9538 100.448" fill="#78D1F2"/>
<path d="M83.6351 95.5158C83.3016 95.8643 82.8171 95.4377 82.4992 95.2505C81.702 94.7302 80.9049 94.21 80.1285 93.6377C79.3522 93.0655 78.7947 92.5712 78.1121 92.051C77.9767 91.9418 77.7891 91.8481 77.7734 91.6556C77.8047 91.2342 78.3362 91.177 78.6436 91.3123C79.8293 92.0336 80.9691 92.8276 82.0564 93.6897C82.4471 94.0487 84.3437 94.9019 83.6195 95.5158" fill="#78D1F2"/>
<path d="M90.7526 86.7962C90.621 86.8582 90.4802 86.8986 90.3358 86.9159C90.1221 86.9159 89.9294 86.739 89.7887 86.6194C88.982 85.9993 88.2097 85.3359 87.4753 84.6321C86.7326 84.0085 86.0361 83.3322 85.3912 82.6083C85.3419 82.5321 85.3082 82.4469 85.2921 82.3576C85.276 82.2683 85.2778 82.1767 85.2974 82.0881C85.3755 81.9424 85.4381 81.7655 85.5996 81.6927C86.0425 81.495 86.3811 81.9528 86.6937 82.213C87.3086 82.7332 87.8765 83.2846 88.4601 83.8309C89.0801 84.4604 89.6897 84.9858 90.3097 85.5893C90.5807 85.8962 91.2215 86.3905 90.7474 86.791" fill="#78D1F2"/>
<path d="M99.0468 79.2689C98.6873 79.4094 98.4007 78.988 98.1611 78.7799C97.2823 77.9474 96.4656 77.0519 95.7174 76.1006C95.2537 75.3983 94.5607 74.8313 94.1543 74.1029C94.1543 73.9365 94.2846 73.8532 94.4044 73.7908C94.4497 73.7786 94.4973 73.777 94.5433 73.786C94.5894 73.795 94.6327 73.8145 94.6701 73.8428C94.751 73.8611 94.8229 73.9071 94.8733 73.9729C95.1047 74.1735 95.3175 74.3947 95.509 74.6336C96.202 75.5024 97.0148 76.2515 97.7442 77.0891C98.0464 77.5001 99.6981 78.8215 99.026 79.2689" fill="#78D1F2"/>
<path d="M107.837 72.3025C107.441 72.7759 106.722 71.4649 106.529 71.1788C105.851 70.2008 105.2 69.1967 104.57 68.1874C104.348 67.8949 104.153 67.5833 103.986 67.2562C103.927 67.1759 103.886 67.083 103.868 66.9847C103.85 66.8865 103.855 66.7854 103.882 66.6892C104.064 66.351 104.403 66.736 104.544 66.9129C105.242 67.714 105.773 68.6557 106.435 69.5141C106.789 70.1383 108.222 71.6782 107.837 72.3233" fill="#78D1F2"/>
<path d="M116.075 59.7441C116.432 60.3397 116.759 60.9526 117.054 61.5806C117.409 62.3245 117.742 63.0841 118.029 63.8592C118.414 64.8113 118.367 65.5864 117.289 65.9402C116.7 66.2367 115.799 66.5853 115.324 65.9402C114.556 64.7565 113.875 63.5185 113.287 62.2361C112.928 61.3465 111.823 59.8586 112.943 59.1147C113.55 58.6798 114.281 58.4534 115.028 58.4696C115.549 58.6673 115.783 59.2811 116.07 59.7077" fill="#78D1F2"/>
<path d="M126.897 60.9096C126.428 61.024 126.256 60.3893 126.089 60.072C125.714 59.1928 125.328 58.3188 124.99 57.424C124.672 56.6332 124.468 55.806 124.171 54.9997C124.119 54.8332 124.015 54.6511 124.104 54.4794C124.359 54.1465 124.838 54.3858 125.021 54.6667C125.619 55.919 126.141 57.2063 126.584 58.5217C126.714 59.0419 127.834 60.7847 126.902 60.9096" fill="#78D1F2"/>
<path d="M137.63 57.5018C137.486 57.4806 137.348 57.4367 137.218 57.3717C137.031 57.2677 136.973 57.0023 136.921 56.8515C136.586 55.8927 136.303 54.9167 136.072 53.9277C135.796 52.9983 135.586 52.0509 135.441 51.0924C135.444 50.9176 135.513 50.7504 135.634 50.6242C135.78 50.5514 135.931 50.4317 136.103 50.4577C136.588 50.5358 136.624 51.1028 136.749 51.4982C136.968 52.2734 137.15 53.0589 137.338 53.8133C137.51 54.6769 137.734 55.452 137.927 56.2948C137.984 56.7058 138.25 57.4653 137.63 57.5434" fill="#78D1F2"/>
<path d="M148.686 55.7435C148.311 55.6707 148.3 55.1608 148.217 54.8591C147.936 53.682 147.742 52.4856 147.639 51.2799C147.639 50.4371 147.363 49.5839 147.441 48.7619C147.514 48.611 147.686 48.6267 147.821 48.6371C147.865 48.652 147.905 48.6765 147.939 48.7089C147.972 48.7413 147.998 48.7808 148.014 48.8243C148.069 48.8868 148.104 48.965 148.113 49.048C148.199 49.3397 148.255 49.6396 148.28 49.9428C148.389 51.051 148.66 52.1226 148.801 53.2203C148.801 53.7406 149.483 55.7383 148.676 55.7435" fill="#78D1F2"/>
<path d="M159.873 54.698C159.284 54.8801 159.399 53.387 159.394 53.0436C159.362 51.8523 159.394 50.6557 159.394 49.4696C159.36 49.1045 159.36 48.737 159.394 48.3719C159.389 48.2744 159.407 48.1772 159.445 48.0873C159.482 47.9973 159.54 47.9169 159.612 47.8517C159.951 47.6644 160.019 48.1742 160.045 48.3719C160.191 49.4124 160.118 50.5049 160.217 51.5714C160.17 52.2841 160.529 54.3546 159.847 54.6928" fill="#78D1F2"/>
<path d="M176.717 156.04C177.572 157.466 177.983 159.113 177.9 160.773C177.817 162.433 177.243 164.03 176.25 165.364C175.257 166.698 173.891 167.708 172.323 168.266C170.756 168.825 169.058 168.906 167.444 168.501C165.83 168.096 164.372 167.222 163.256 165.99C162.139 164.757 161.414 163.222 161.171 161.578C160.928 159.934 161.179 158.255 161.892 156.754C162.605 155.252 163.748 153.996 165.176 153.143C166.125 152.576 167.176 152.202 168.269 152.041C169.362 151.88 170.476 151.936 171.548 152.205C172.62 152.474 173.628 152.951 174.515 153.609C175.402 154.267 176.15 155.093 176.717 156.04Z" fill="#3376BC"/>
<path d="M180.735 273.635C180.027 273.562 180.146 271.741 180.042 271.169C179.943 269.795 179.839 268.464 179.787 267.09C179.703 266.982 179.651 266.852 179.639 266.715C179.627 266.579 179.655 266.441 179.719 266.32C179.772 266.248 179.843 266.192 179.924 266.155C180.006 266.118 180.095 266.103 180.184 266.111C180.273 266.119 180.358 266.15 180.432 266.2C180.506 266.25 180.565 266.318 180.605 266.398C180.86 267.439 180.871 268.536 181.126 269.587C181.189 270.295 181.934 273.796 180.74 273.635" fill="#78D1F2"/>
<path d="M192.286 270.742C191.958 270.534 192.021 270.071 191.958 269.733C191.619 268.001 190.973 266.315 190.838 264.531C190.84 264.423 190.871 264.318 190.929 264.226C190.987 264.135 191.069 264.062 191.166 264.014C191.262 263.966 191.371 263.946 191.478 263.955C191.586 263.965 191.689 264.004 191.776 264.068C192.052 264.281 192.026 264.65 192.078 264.962C192.239 265.68 192.286 266.414 192.422 267.132C192.557 267.85 192.74 268.661 192.88 269.431C193.084 269.905 193.052 271.028 192.281 270.722" fill="#78D1F2"/>
<path d="M163.76 49.2925C104.273 51.7272 76.6738 98.0804 76.6738 98.0804" stroke="black" stroke-width="2" stroke-miterlimit="10" stroke-dasharray="6 6 6 6 6 6"/>
<path d="M157.007 45.2345L164.192 49.5837L164.098 48.8605L157.694 54.7288C157.257 55.1346 157.913 55.7693 158.351 55.3843L164.739 49.5108C164.788 49.4608 164.825 49.4002 164.848 49.3336C164.87 49.267 164.877 49.1962 164.868 49.1265C164.859 49.0568 164.834 48.9901 164.796 48.9314C164.757 48.8727 164.705 48.8236 164.645 48.7877L157.476 44.4125C157.369 44.3504 157.242 44.3331 157.123 44.3643C157.004 44.3955 156.902 44.4727 156.84 44.579C156.778 44.6852 156.76 44.8118 156.792 44.9308C156.823 45.0498 156.9 45.1516 157.007 45.2137" fill="black"/>
<path d="M26.2797 76.8444C26.9362 78.1346 28.9838 81.1155 26.4464 81.5265C25.2271 81.6878 23.2577 77.8849 22.5543 76.912C21.2135 74.7478 19.8883 72.5767 18.5788 70.3986C17.2501 68.1772 15.859 65.9922 14.5668 63.75C13.4778 61.539 12.17 59.458 10.9821 57.2991C10.5027 56.4146 10.0442 55.5146 9.51797 54.651C9.4815 54.5782 9.43982 54.5106 9.39814 54.4377C8.2928 55.177 7.08749 55.7551 5.81864 56.1545C5.02666 56.4251 4.3858 55.7592 4.13049 55.0672C4.05962 54.9502 4.01526 54.8192 4.00055 54.6832C3.98584 54.5473 4.0011 54.4098 4.04529 54.2804C4.08949 54.151 4.16153 54.0328 4.25636 53.9342C4.35119 53.8355 4.4665 53.7588 4.59419 53.7094C5.26111 52.8666 6.23547 52.3152 7.09518 51.6857C8.54886 50.6816 10.0338 49.792 11.5083 48.8296C12.1961 48.3718 12.8057 48.0648 13.4726 47.6642C14.7544 46.733 16.0778 46.3637 16.6614 48.2365C16.9115 49.1469 15.8121 49.8284 15.2129 50.3175C14.2021 51.0146 13.259 51.7949 12.2274 52.4556L11.6751 52.8458C12.6322 54.1842 13.5158 55.5736 14.3219 57.0077C15.7912 59.3592 17.2275 61.7332 18.6309 64.1298C19.8605 66.039 20.9182 68.0628 22.1843 69.9408C23.5807 72.2143 25.0969 74.4305 26.2797 76.8236" fill="#3857A7"/>
<path d="M39.8468 71.1373C40.3678 72.2402 43.2283 76.0379 41.1962 76.5738C39.5185 76.683 38.6536 74.9662 37.7991 73.8061C36.4861 71.7616 35.2617 69.6442 34.0893 67.5268C33.1879 65.9661 32.3855 64.3066 31.5415 62.699C30.1451 60.2903 28.8634 57.8088 27.6129 55.3273C26.3207 52.7053 24.9973 50.1041 23.6426 47.5237C22.8089 45.8954 21.6105 44.4023 21.0374 42.6491C20.7091 41.3277 22.1316 40.8699 23.1215 41.4629C24.7472 42.3889 25.5287 44.2098 26.4926 45.7289C28.2642 48.7202 29.6188 51.9093 31.2445 54.9787C33.141 58.6204 34.8917 62.3349 36.8612 65.9349C37.8408 67.6725 38.8203 69.4101 39.8311 71.1373" fill="#3857A7"/>
<path d="M56.9998 59.2137C58.3389 60.0981 61.5693 61.4559 61.7829 63.1207C61.8011 63.264 61.7872 63.4095 61.742 63.5468C61.6969 63.684 61.6217 63.8095 61.5219 63.9142C61.4221 64.0188 61.3002 64.0999 61.1651 64.1516C61.03 64.2033 60.8851 64.2243 60.7408 64.2131C59.7282 64.0531 58.7534 63.7093 57.8648 63.1987C56.5361 62.5172 55.2596 61.768 53.9622 61.0189C50.7943 59.1876 47.7775 57.0703 44.5106 55.4107C46.1571 57.9547 47.7984 60.5038 49.4605 63.0426C50.3514 64.4577 51.3049 65.8311 52.1855 67.2565C52.5658 68.0005 53.2588 68.786 53.0191 69.6652C52.9016 69.9122 52.7056 70.1134 52.4616 70.2375C52.2534 70.2867 52.038 70.2973 51.826 70.2687C51.4536 70.2282 51.0953 70.1043 50.7777 69.9061C50.4601 69.7079 50.1915 69.4406 49.9919 69.1242C49.4709 68.4739 49.0124 67.7924 48.5382 67.1109C47.095 65.0299 45.7142 62.949 44.37 60.79C42.39 57.6061 40.3649 54.4535 38.2947 51.3321C36.3304 48.1534 34.3088 45.006 32.1726 41.9678C31.094 40.1001 29.5674 38.5394 28.5253 36.6509C28.072 34.8145 30.0519 34.492 31.1305 35.6781C31.7193 36.3183 32.2429 37.0154 32.6936 37.759C33.5064 38.9036 34.2983 40.0637 35.0799 41.229C37.2161 44.3297 39.3142 47.4511 41.374 50.5933C41.2177 49.5528 41.0197 48.4707 40.853 47.4147C40.0818 42.7325 39.4931 38.0088 38.6646 33.3266C38.4927 32.4734 38.2687 31.4017 38.9095 30.6786C39.4306 30.1115 40.3476 30.5486 40.7071 31.0948C41.8638 32.7075 42.093 34.7365 42.5307 36.6041C43.4477 41.2342 43.8906 45.9684 44.3491 50.6505C44.4325 51.3477 44.4377 52.0604 44.5627 52.7315L45.3599 53.1061C46.402 53.5951 47.4805 54.0321 48.4861 54.5263C49.2761 54.8876 50.0419 55.2994 50.7787 55.7593C52.8628 56.9038 54.9834 57.9807 57.0311 59.2137" fill="#3857A7"/>
<path d="M80.6598 46.4259C81.3163 47.7161 83.3639 50.697 80.8265 51.108C79.6125 51.2693 77.6378 47.4663 76.9396 46.4935C75.5953 44.3293 74.2684 42.1582 72.9589 39.9801C71.6302 37.7587 70.2443 35.5737 68.9521 33.3315C67.8579 31.1205 66.5501 29.0395 65.3622 26.8805C64.8828 25.9961 64.4243 25.0961 63.8981 24.2325C63.8653 24.1576 63.8251 24.0862 63.7782 24.0192C62.6729 24.7585 61.4676 25.3366 60.1987 25.736C59.4068 26.0065 58.7659 25.3406 58.5158 24.6487C58.4439 24.5323 58.3985 24.4014 58.383 24.2655C58.3674 24.1296 58.3821 23.992 58.4258 23.8623C58.4696 23.7327 58.5414 23.6143 58.6362 23.5155C58.731 23.4168 58.8465 23.3401 58.9743 23.2909C59.6412 22.4481 60.6156 21.8966 61.4753 21.2672C62.929 20.2631 64.4139 19.3735 65.8936 18.411C66.5762 17.9532 67.1858 17.6463 67.8527 17.2457C69.1345 16.3145 70.4579 15.9399 71.0415 17.818C71.2916 18.7284 70.1974 19.4099 69.593 19.8989C68.5874 20.596 67.6443 21.3764 66.6127 22.0371L66.0604 22.4273C67.014 23.767 67.8958 25.1562 68.702 26.5892C70.1713 28.9407 71.6076 31.3147 73.011 33.7112C74.2406 35.6205 75.2983 37.6442 76.5644 39.5223C77.966 41.7957 79.477 44.012 80.6598 46.4051" fill="#3857A7"/>
<path d="M111.38 28.8056C112.725 29.69 115.955 31.0478 116.163 32.7126C116.182 32.8559 116.168 33.0015 116.123 33.1387C116.077 33.276 116.002 33.4015 115.902 33.5061C115.803 33.6107 115.681 33.6918 115.546 33.7435C115.411 33.7952 115.266 33.8163 115.121 33.8051C114.107 33.637 113.132 33.2843 112.245 32.7646C110.917 32.0831 109.64 31.3339 108.343 30.5848C105.175 28.7536 102.158 26.6362 98.8912 24.9766C100.538 27.5189 102.188 30.0628 103.841 32.6085C104.732 34.0236 105.691 35.397 106.566 36.8225C106.946 37.5664 107.639 38.352 107.4 39.2312C107.282 39.4781 107.086 39.6794 106.842 39.8034C106.634 39.8527 106.419 39.8633 106.207 39.8346C105.834 39.7934 105.476 39.6692 105.159 39.471C104.841 39.2729 104.573 39.006 104.372 38.6901C103.851 38.0398 103.398 37.3583 102.924 36.6768C101.476 34.5958 100.095 32.5149 98.7557 30.3559C96.7758 27.172 94.7594 24.0142 92.6804 20.898C90.7161 17.7193 88.6945 14.5719 86.5583 11.5337C85.4798 9.66603 83.9531 8.10532 82.9111 6.21686C82.4578 4.38042 84.4377 4.05787 85.5162 5.24401C86.1066 5.8829 86.6304 6.58015 87.0793 7.32496C87.8974 8.46949 88.6841 9.62962 89.4657 10.795C91.6054 13.8956 93.7034 17.017 95.7598 20.1592C95.6035 19.1188 95.4055 18.0367 95.2387 16.9806C94.4676 12.2984 93.8788 7.57468 93.0504 2.89254C92.8785 2.03935 92.6544 0.967658 93.2953 0.244527C93.8163 -0.322532 94.7333 0.114467 95.0981 0.660717C96.2495 2.27345 96.4788 4.30238 96.9165 6.17004C97.8335 10.8002 98.2764 15.5083 98.7349 20.2165C98.8183 20.9136 98.8287 21.6263 98.9485 22.2974L99.7457 22.672C100.788 23.161 101.866 23.598 102.872 24.0922C103.662 24.4524 104.428 24.8642 105.164 25.3252C107.249 26.4697 109.369 27.5466 111.417 28.7796" fill="#3857A7"/>
<path d="M95.3217 46.3688C92.383 45.8226 89.7726 42.5139 87.9073 40.3289C86.6309 38.7445 85.4479 37.0874 84.3643 35.3658C83.4733 33.7531 82.4938 32.2079 81.5872 30.6056C80.2388 28.0614 79.079 25.4219 78.1171 22.7084C77.2887 20.3257 76.1372 17.9378 76.0799 15.3887C75.9288 13.3597 76.9708 11.2268 78.9091 10.4568C81.4621 9.62442 83.687 12.4389 85.2449 14.0621C88.7358 17.9378 91.3201 22.5419 93.7377 27.1356C95.8219 31.7033 98.9116 36.0265 99.2607 41.1821C99.4899 43.5283 98.2186 46.9567 95.3217 46.3844M95.6291 43.4087C97.8747 42.8884 96.0928 38.6173 95.5874 37.2126C93.9513 33.7895 91.9662 30.538 90.1634 27.2033C88.4924 24.2084 86.6411 21.3175 84.6196 18.5465C83.6557 17.2407 82.9158 15.732 81.4569 14.9569C80.9359 14.6863 80.1492 14.7436 80.0397 15.4355C79.8834 17.2979 80.5243 19.1136 81.0818 20.8616C81.8475 22.9939 82.7922 25.0579 83.9058 27.0316C84.8381 28.97 85.8819 30.8529 87.032 32.671C88.022 34.4554 89.1943 36.1201 90.325 37.8161C91.8255 39.8554 93.175 42.3994 95.6134 43.4087" fill="#3857A7"/>
<path d="M299.369 220.628C300.823 220.846 301.948 221.481 301.088 223.073C300.661 223.833 299.525 223.567 298.77 223.505C297.66 223.307 296.529 223.208 295.425 222.985L294.81 222.881C294.562 224.38 294.231 225.865 293.82 227.329C293.254 229.826 292.651 232.314 292.012 234.794C291.569 236.844 290.97 238.852 290.548 240.907C289.985 243.305 289.506 245.74 288.75 248.076C288.339 249.35 287.739 252.628 285.817 251.249C284.91 250.562 286.098 246.791 286.275 245.698C286.803 243.409 287.349 241.125 287.911 238.847C288.485 236.526 289 234.164 289.615 231.886C290.339 229.727 290.84 227.516 291.465 225.331C291.731 224.441 292.017 223.552 292.231 222.646C292.231 222.579 292.272 222.501 292.293 222.428C291.088 222.194 289.921 221.791 288.828 221.231C288.136 220.893 288.151 220.04 288.432 219.421C288.461 219.298 288.517 219.183 288.596 219.083C288.675 218.984 288.774 218.904 288.888 218.848C289.001 218.791 289.126 218.761 289.252 218.758C289.379 218.756 289.505 218.781 289.62 218.833C290.614 218.8 291.608 218.899 292.575 219.13C294.185 219.416 295.732 219.801 297.332 220.123C298.072 220.274 298.676 220.467 299.369 220.643" fill="#C72B26"/>
<path d="M309.732 222.854C310.201 224.519 309.519 226.215 309.164 227.838C308.372 230.96 307.205 233.935 306.252 236.984C305.116 240.626 303.85 244.174 302.792 247.81C302.307 249.584 301.818 251.358 301.359 253.148C301 254.219 300.38 258.548 298.697 257.58C297.53 256.566 298.082 254.88 298.275 253.564C298.749 251.369 299.317 249.194 299.937 247.04C300.374 245.417 300.916 243.82 301.411 242.223C302.068 239.736 302.839 237.275 303.641 234.841C304.503 232.288 305.328 229.725 306.116 227.152C306.637 225.544 306.825 223.786 307.596 222.277C308.237 221.195 309.472 221.819 309.732 222.854Z" fill="#C72B26"/>
<path d="M327.979 227.448C327.687 229.253 326.52 230.725 325.582 232.239C323.17 235.881 320.372 239.237 317.642 242.608C317.24 243.128 316.782 243.591 316.412 244.122C316.506 244.376 316.594 244.642 316.688 244.881C317.048 245.875 317.48 246.868 317.824 247.857C318.107 248.605 318.34 249.372 318.522 250.151C319.142 252.232 319.83 254.313 320.361 256.467C320.664 257.913 321.893 260.904 320.945 262.127C320.863 262.233 320.758 262.32 320.638 262.38C320.518 262.441 320.386 262.474 320.252 262.477C320.117 262.48 319.984 262.453 319.861 262.398C319.739 262.342 319.63 262.261 319.543 262.158C318.982 261.396 318.567 260.537 318.319 259.625C317.897 258.319 317.537 256.992 317.183 255.666C316.297 252.409 315.703 249.059 314.646 245.849C314.067 248.59 313.484 251.327 312.916 254.069C312.577 255.572 312.306 257.091 311.957 258.595C311.723 259.333 311.665 260.296 310.915 260.712C310.676 260.798 310.414 260.798 310.175 260.712C310.007 260.609 309.859 260.477 309.737 260.322C309.522 260.052 309.369 259.739 309.29 259.403C309.211 259.067 309.207 258.718 309.279 258.381C309.373 257.627 309.508 256.873 309.644 256.118C310.04 253.824 310.519 251.54 311.024 249.267C311.801 245.896 312.535 242.504 313.208 239.122C313.989 235.767 314.713 232.39 315.292 228.998C315.813 227.073 315.813 225.06 316.381 223.156C317.277 221.663 318.783 222.735 318.704 224.196C318.676 225.003 318.566 225.805 318.376 226.59C318.168 227.869 317.928 229.144 317.683 230.413C317.061 233.836 316.398 237.249 315.693 240.652C316.282 239.85 316.839 239.034 317.407 238.217C319.955 234.643 322.643 231.173 325.15 227.568C325.593 226.896 326.145 226.048 327.036 226.007C327.744 225.976 328.078 226.855 327.942 227.448" fill="#C72B26"/>
<path d="M273.99 281.215C275.298 280.554 276.595 280.419 276.814 282.213C276.903 283.077 275.803 283.535 275.178 283.909C274.136 284.393 273.177 284.95 272.14 285.413L271.578 285.683C272.246 287.05 272.841 288.451 273.36 289.882C274.346 292.244 275.299 294.619 276.22 297.009C277.048 298.939 277.705 300.937 278.58 302.836C279.513 305.114 280.56 307.362 281.279 309.718C281.686 310.993 283.098 314.01 280.758 314C279.622 313.969 278.398 310.213 277.903 309.214C277.007 307.046 276.124 304.87 275.256 302.685C274.381 300.463 273.443 298.263 272.604 296.031C271.937 293.851 271.041 291.76 270.301 289.616C269.999 288.737 269.717 287.853 269.368 286.989C269.348 286.916 269.322 286.845 269.29 286.776C268.174 287.29 266.99 287.64 265.773 287.816C265.013 287.946 264.528 287.244 264.403 286.578C264.354 286.461 264.332 286.335 264.338 286.209C264.344 286.082 264.377 285.959 264.437 285.847C264.496 285.735 264.579 285.638 264.681 285.562C264.782 285.486 264.899 285.433 265.023 285.408C265.82 284.802 266.696 284.308 267.628 283.941C269.103 283.238 270.588 282.656 272.078 281.995C272.771 281.683 273.375 281.475 274.037 281.23" fill="#C72B26"/>
<path d="M292.819 293.607C291.748 290.629 290.497 287.719 289.073 284.893C288.39 283.561 287.937 282.073 286.728 281.152C286.291 280.824 285.572 280.757 285.368 281.376C284.941 283.046 285.254 284.794 285.499 286.474C285.878 288.53 286.429 290.55 287.145 292.514C287.708 294.421 288.381 296.293 289.162 298.122C289.797 299.891 290.615 301.587 291.386 303.325C292.428 305.406 293.299 307.924 295.367 309.203C297.488 309.073 296.508 304.912 296.263 303.554C295.279 300.193 293.966 296.936 292.819 293.628M290.308 280.934C292.913 284.992 294.57 289.57 296.086 294.117C297.295 298.585 299.462 302.992 299.004 307.731C298.863 309.901 297.175 312.835 294.643 311.893C292.111 310.951 290.167 307.549 288.792 305.281C287.868 303.646 287.038 301.959 286.306 300.229C285.738 298.627 285.082 297.072 284.493 295.48C283.65 292.96 282.99 290.384 282.518 287.77C282.122 285.47 281.435 283.124 281.763 280.793C281.822 279.855 282.174 278.959 282.769 278.23C283.365 277.501 284.173 276.977 285.082 276.73C287.531 276.35 289.136 279.248 290.292 280.955" fill="#C72B26"/>
<path d="M301.255 270.196C302.068 271.835 301.974 273.707 302.088 275.487C302.229 279.841 301.927 284.195 301.64 288.534C301.609 289.179 301.51 289.83 301.521 290.48L302.187 290.938C303.058 291.536 303.985 292.098 304.84 292.701C305.507 293.148 306.144 293.638 306.746 294.168C308.471 295.521 310.237 296.822 311.905 298.247C312.994 299.251 315.734 300.973 315.672 302.518C315.667 302.652 315.633 302.784 315.571 302.903C315.509 303.022 315.421 303.126 315.313 303.207C315.206 303.288 315.082 303.343 314.95 303.37C314.818 303.397 314.682 303.394 314.552 303.361C313.652 303.063 312.815 302.603 312.082 302.003C310.972 301.186 309.914 300.307 308.857 299.433C306.252 297.295 303.813 294.907 301.088 292.909C302.203 295.476 303.323 298.041 304.449 300.604C305.048 302.029 305.715 303.423 306.298 304.849C306.533 305.582 307.043 306.41 306.694 307.169C306.55 307.376 306.341 307.53 306.1 307.606C305.903 307.617 305.706 307.594 305.517 307.539C305.184 307.446 304.877 307.279 304.618 307.051C304.359 306.823 304.155 306.54 304.021 306.222C303.657 305.556 303.329 304.865 302.979 304.173C301.974 302.092 301.036 299.933 300.124 297.789C298.801 294.595 297.429 291.42 296.008 288.264C294.695 285.075 293.33 281.906 291.84 278.795C291.136 276.933 289.98 275.284 289.328 273.406C289.193 271.668 291.043 271.673 291.824 272.885C292.27 273.56 292.647 274.278 292.95 275.029C293.523 276.194 294.065 277.37 294.606 278.546C296.086 281.691 297.528 284.856 298.931 288.04C298.931 287.046 298.931 286.053 298.931 285.064C298.931 280.673 299.103 276.288 299.051 271.902C299.051 271.096 298.978 270.087 299.671 269.53C300.234 269.088 301 269.624 301.234 270.175" fill="#C72B26"/>
</g>
<defs>
<filter id="filter0_d_1089_18379" x="0" y="0" width="332" height="322" filterUnits="userSpaceOnUse" color-interpolation-filters="sRGB">
<feFlood flood-opacity="0" result="BackgroundImageFix"/>
<feColorMatrix in="SourceAlpha" type="matrix" values="0 0 0 0 0 0 0 0 0 0 0 0 0 0 0 0 0 0 127 0" result="hardAlpha"/>
<feOffset dy="4"/>
<feGaussianBlur stdDeviation="2"/>
<feComposite in2="hardAlpha" operator="out"/>
<feColorMatrix type="matrix" values="0 0 0 0 0 0 0 0 0 0 0 0 0 0 0 0 0 0 0.25 0"/>
<feBlend mode="normal" in2="BackgroundImageFix" result="effect1_dropShadow_1089_18379"/>
<feBlend mode="normal" in="SourceGraphic" in2="effect1_dropShadow_1089_18379" result="shape"/>
</filter>
<clipPath id="clip0_1089_18379">
<rect width="324" height="314" fill="white" transform="translate(4)"/>
</clipPath>
</defs>
</svg>
